REM DIRINDEX 1\2\4,1\2\5,1\2\6,1\3\7,1\3\8
REM DIRNAME cjc128,folder01,folder02,folder03,folder04,folder05,folder06,folder07
TITLE ""
FILE "012_Lesson 10_Output_Stage.mp3" MP3
  TRACK 01 AUDIO
    TITLE "0:"
    INDEX 01 00:00:00
  TRACK 02 AUDIO
    TITLE "6:cjc128_0643"
    INDEX 01 00:00:09
  TRACK 03 AUDIO
    TITLE "0:"
    INDEX 01 00:02:59
  TRACK 04 AUDIO
    TITLE "6:cjc128_0644"
    INDEX 01 00:03:43
  TRACK 05 AUDIO
    TITLE "0:"
    INDEX 01 00:05:22
  TRACK 06 AUDIO
    TITLE "4:cjc128_0645"
    INDEX 01 00:06:02
  TRACK 07 AUDIO
    TITLE "0:"
    INDEX 01 00:08:36
  TRACK 08 AUDIO
    TITLE "5:cjc128_0646"
    INDEX 01 00:11:17
  TRACK 09 AUDIO
    TITLE "0:"
    INDEX 01 00:13:32
  TRACK 10 AUDIO
    TITLE "6:cjc128_0647"
    INDEX 01 00:14:07
  TRACK 11 AUDIO
    TITLE "0:"
    INDEX 01 00:15:58
  TRACK 12 AUDIO
    TITLE "4:cjc128_0648"
    INDEX 01 00:16:36
  TRACK 13 AUDIO
    TITLE "0:"
    INDEX 01 00:18:66
  TRACK 14 AUDIO
    TITLE "5:cjc128_0649"
    INDEX 01 00:21:45
  TRACK 15 AUDIO
    TITLE "0:"
    INDEX 01 00:23:44
  TRACK 16 AUDIO
    TITLE "6:cjc128_0650"
    INDEX 01 00:24:37
  TRACK 17 AUDIO
    TITLE "0:"
    INDEX 01 00:26:24
  TRACK 18 AUDIO
    TITLE "4:cjc128_0651"
    INDEX 01 00:27:02
  TRACK 19 AUDIO
    TITLE "0:"
    INDEX 01 00:29:17
  TRACK 20 AUDIO
    TITLE "5:cjc128_0652"
    INDEX 01 00:31:73
  TRACK 21 AUDIO
    TITLE "0:"
    INDEX 01 00:34:32
  TRACK 22 AUDIO
    TITLE "6:cjc128_0653"
    INDEX 01 00:34:65
  TRACK 23 AUDIO
    TITLE "0:"
    INDEX 01 00:36:54
  TRACK 24 AUDIO
    TITLE "4:cjc128_0654"
    INDEX 01 00:37:36
  TRACK 25 AUDIO
    TITLE "0:"
    INDEX 01 00:39:37
  TRACK 26 AUDIO
    TITLE "5:cjc128_0655"
    INDEX 01 00:42:37
  TRACK 27 AUDIO
    TITLE "0:"
    INDEX 01 00:44:46
  TRACK 28 AUDIO
    TITLE "6:cjc128_0656"
    INDEX 01 00:45:39
  TRACK 29 AUDIO
    TITLE "0:"
    INDEX 01 00:47:27
  TRACK 30 AUDIO
    TITLE "4:cjc128_0657"
    INDEX 01 00:47:64
  TRACK 31 AUDIO
    TITLE "0:"
    INDEX 01 00:51:05
  TRACK 32 AUDIO
    TITLE "5:cjc128_0658"
    INDEX 01 00:54:38
  TRACK 33 AUDIO
    TITLE "0:"
    INDEX 01 00:57:35
  TRACK 34 AUDIO
    TITLE "6:cjc128_0659"
    INDEX 01 00:58:15
  TRACK 35 AUDIO
    TITLE "0:"
    INDEX 01 01:00:08
  TRACK 36 AUDIO
    TITLE "4:cjc128_0660"
    INDEX 01 01:00:59
  TRACK 37 AUDIO
    TITLE "0:"
    INDEX 01 01:03:45
  TRACK 38 AUDIO
    TITLE "5:cjc128_0661"
    INDEX 01 01:07:02
  TRACK 39 AUDIO
    TITLE "0:"
    INDEX 01 01:09:52
  TRACK 40 AUDIO
    TITLE "6:cjc128_0662"
    INDEX 01 01:10:45
  TRACK 41 AUDIO
    TITLE "0:"
    INDEX 01 01:12:36
  TRACK 42 AUDIO
    TITLE "4:cjc128_0663"
    INDEX 01 01:13:16
  TRACK 43 AUDIO
    TITLE "0:"
    INDEX 01 01:16:18
  TRACK 44 AUDIO
    TITLE "5:cjc128_0664"
    INDEX 01 01:19:48
  TRACK 45 AUDIO
    TITLE "0:"
    INDEX 01 01:22:31
  TRACK 46 AUDIO
    TITLE "6:cjc128_0665"
    INDEX 01 01:23:11
  TRACK 47 AUDIO
    TITLE "0:"
    INDEX 01 01:24:71
  TRACK 48 AUDIO
    TITLE "4:cjc128_0666"
    INDEX 01 01:25:47
  TRACK 49 AUDIO
    TITLE "0:"
    INDEX 01 01:28:59
  TRACK 50 AUDIO
    TITLE "5:cjc128_0667"
    INDEX 01 01:32:23
  TRACK 51 AUDIO
    TITLE "0:"
    INDEX 01 01:35:06
  TRACK 52 AUDIO
    TITLE "6:cjc128_0668"
    INDEX 01 01:35:67
  TRACK 53 AUDIO
    TITLE "0:"
    INDEX 01 01:37:56
  TRACK 54 AUDIO
    TITLE "4:cjc128_0669"
    INDEX 01 01:38:38
  TRACK 55 AUDIO
    TITLE "0:"
    INDEX 01 01:41:26
  TRACK 56 AUDIO
    TITLE "5:cjc128_0670"
    INDEX 01 01:44:58
  TRACK 57 AUDIO
    TITLE "0:"
    INDEX 01 01:47:44
  TRACK 58 AUDIO
    TITLE "6:cjc128_0671"
    INDEX 01 01:48:36
  TRACK 59 AUDIO
    TITLE "0:"
    INDEX 01 01:50:11
  TRACK 60 AUDIO
    TITLE "4:cjc128_0672"
    INDEX 01 01:50:68
  TRACK 61 AUDIO
    TITLE "0:"
    INDEX 01 01:53:59
  TRACK 62 AUDIO
    TITLE "5:cjc128_0673"
    INDEX 01 01:56:49
  TRACK 63 AUDIO
    TITLE "0:"
    INDEX 01 01:58:68
  TRACK 64 AUDIO
    TITLE "6:cjc128_0674"
    INDEX 01 01:59:57
  TRACK 65 AUDIO
    TITLE "0:"
    INDEX 01 02:01:48
  TRACK 66 AUDIO
    TITLE "4:cjc128_0675"
    INDEX 01 02:02:30
  TRACK 67 AUDIO
    TITLE "0:"
    INDEX 01 02:05:38
  TRACK 68 AUDIO
    TITLE "5:cjc128_0676"
    INDEX 01 02:08:54
  TRACK 69 AUDIO
    TITLE "0:"
    INDEX 01 02:11:41
  TRACK 70 AUDIO
    TITLE "6:cjc128_0677"
    INDEX 01 02:12:15
  TRACK 71 AUDIO
    TITLE "0:"
    INDEX 01 02:14:08
  TRACK 72 AUDIO
    TITLE "4:cjc128_0678"
    INDEX 01 02:14:65
  TRACK 73 AUDIO
    TITLE "0:"
    INDEX 01 02:18:33
  TRACK 74 AUDIO
    TITLE "5:cjc128_0679"
    INDEX 01 02:22:06
  TRACK 75 AUDIO
    TITLE "0:"
    INDEX 01 02:25:20
  TRACK 76 AUDIO
    TITLE "6:cjc128_0680"
    INDEX 01 02:25:70
  TRACK 77 AUDIO
    TITLE "0:"
    INDEX 01 02:27:62
  TRACK 78 AUDIO
    TITLE "4:cjc128_0681"
    INDEX 01 02:28:45
  TRACK 79 AUDIO
    TITLE "0:"
    INDEX 01 02:32:43
  TRACK 80 AUDIO
    TITLE "5:cjc128_0682"
    INDEX 01 02:36:06
  TRACK 81 AUDIO
    TITLE "0:"
    INDEX 01 02:38:73
  TRACK 82 AUDIO
    TITLE "6:cjc128_0683"
    INDEX 01 02:39:53
  TRACK 83 AUDIO
    TITLE "0:"
    INDEX 01 02:41:46
  TRACK 84 AUDIO
    TITLE "4:cjc128_0684"
    INDEX 01 02:42:30
  TRACK 85 AUDIO
    TITLE "0:"
    INDEX 01 02:48:05
  TRACK 86 AUDIO
    TITLE "5:cjc128_0685"
    INDEX 01 02:54:02
  TRACK 87 AUDIO
    TITLE "0:"
    INDEX 01 02:59:24
  TRACK 88 AUDIO
    TITLE "6:cjc128_0686"
    INDEX 01 03:00:04
  TRACK 89 AUDIO
    TITLE "0:"
    INDEX 01 03:02:01
  TRACK 90 AUDIO
    TITLE "4:cjc128_0687"
    INDEX 01 03:02:56
  TRACK 91 AUDIO
    TITLE "0:"
    INDEX 01 03:06:15
  TRACK 92 AUDIO
    TITLE "5:cjc128_0688"
    INDEX 01 03:09:48
  TRACK 93 AUDIO
    TITLE "0:"
    INDEX 01 03:12:70
  TRACK 94 AUDIO
    TITLE "6:cjc128_0689"
    INDEX 01 03:13:50
  TRACK 95 AUDIO
    TITLE "0:"
    INDEX 01 03:15:47
  TRACK 96 AUDIO
    TITLE "4:cjc128_0690"
    INDEX 01 03:16:31
  TRACK 97 AUDIO
    TITLE "0:"
    INDEX 01 03:19:27
  TRACK 98 AUDIO
    TITLE "5:cjc128_0691"
    INDEX 01 03:22:72
  TRACK 99 AUDIO
    TITLE "0:"
    INDEX 01 03:25:65
  TRACK 100 AUDIO
    TITLE "6:cjc128_0692"
    INDEX 01 03:26:51
  TRACK 101 AUDIO
    TITLE "0:"
    INDEX 01 03:28:48
  TRACK 102 AUDIO
    TITLE "4:cjc128_0693"
    INDEX 01 03:29:27
  TRACK 103 AUDIO
    TITLE "0:"
    INDEX 01 03:32:61
  TRACK 104 AUDIO
    TITLE "5:cjc128_0694"
    INDEX 01 03:36:22
  TRACK 105 AUDIO
    TITLE "0:"
    INDEX 01 03:39:20
  TRACK 106 AUDIO
    TITLE "6:cjc128_0695"
    INDEX 01 03:39:71
  TRACK 107 AUDIO
    TITLE "0:"
    INDEX 01 03:41:62
  TRACK 108 AUDIO
    TITLE "4:cjc128_0696"
    INDEX 01 03:42:38
  TRACK 109 AUDIO
    TITLE "0:"
    INDEX 01 03:45:71
  TRACK 110 AUDIO
    TITLE "5:cjc128_0697"
    INDEX 01 03:49:22
  TRACK 111 AUDIO
    TITLE "0:"
    INDEX 01 03:52:19
  TRACK 112 AUDIO
    TITLE "6:cjc128_0698"
    INDEX 01 03:52:68
  TRACK 113 AUDIO
    TITLE "0:"
    INDEX 01 03:54:63
  TRACK 114 AUDIO
    TITLE "4:cjc128_0699"
    INDEX 01 03:55:39
  TRACK 115 AUDIO
    TITLE "0:"
    INDEX 01 03:58:66
  TRACK 116 AUDIO
    TITLE "5:cjc128_0700"
    INDEX 01 04:03:03
  TRACK 117 AUDIO
    TITLE "0:"
    INDEX 01 04:06:34
  TRACK 118 AUDIO
    TITLE "6:cjc128_0701"
    INDEX 01 04:07:22
  TRACK 119 AUDIO
    TITLE "0:"
    INDEX 01 04:08:67
  TRACK 120 AUDIO
    TITLE "4:cjc128_0702"
    INDEX 01 04:09:50
  TRACK 121 AUDIO
    TITLE "0:"
    INDEX 01 04:11:73
  TRACK 122 AUDIO
    TITLE "5:cjc128_0703"
    INDEX 01 04:14:12
  TRACK 123 AUDIO
    TITLE "0:"
    INDEX 01 04:15:41
  TRACK 124 AUDIO
    TITLE "6:cjc128_0704"
    INDEX 01 04:16:29
  TRACK 125 AUDIO
    TITLE "0:"
    INDEX 01 04:18:20
  TRACK 126 AUDIO
    TITLE "4:cjc128_0705"
    INDEX 01 04:19:00
  TRACK 127 AUDIO
    TITLE "0:"
    INDEX 01 04:21:61
  TRACK 128 AUDIO
    TITLE "5:cjc128_0706"
    INDEX 01 04:24:30
  TRACK 129 AUDIO
    TITLE "0:"
    INDEX 01 04:26:35
  TRACK 130 AUDIO
    TITLE "6:cjc128_0707"
    INDEX 01 04:27:09
  TRACK 131 AUDIO
    TITLE "0:"
    INDEX 01 04:29:02
  TRACK 132 AUDIO
    TITLE "4:cjc128_0708"
    INDEX 01 04:29:51
  TRACK 133 AUDIO
    TITLE "0:"
    INDEX 01 04:32:12
  TRACK 134 AUDIO
    TITLE "5:cjc128_0709"
    INDEX 01 04:34:46
  TRACK 135 AUDIO
    TITLE "0:"
    INDEX 01 04:36:61
